HIERARCHY
ROOT hip
{
	OFFSET 0.000000 0.000000 0.000000
	CHANNELS 6 Xposition Yposition Zposition Xrotation Zrotation Yrotation 
	JOINT abdomen
	{
		OFFSET 0.000000 3.422050 0.000000
		CHANNELS 3 Xrotation Zrotation Yrotation 
		JOINT chest
		{
			OFFSET 0.000000 8.486693 -0.684411
			CHANNELS 3 Xrotation Zrotation Yrotation 
			JOINT neck
			{
				OFFSET 0.000000 10.266162 -0.273764
				CHANNELS 3 Xrotation Zrotation Yrotation 
				JOINT head
				{
					OFFSET 0.000000 3.148285 0.000000
					CHANNELS 3 Xrotation Zrotation Yrotation 
					End Site
					{
						OFFSET 0.000000 3.148289 0.000000
					}
				}
			}
			JOINT lCollar
			{
				OFFSET 3.422053 6.707223 -0.821293
				CHANNELS 3 Yrotation Zrotation Xrotation 
				JOINT lShldr
				{
					OFFSET 3.285171 0.000000 0.000000
					CHANNELS 3 Zrotation Yrotation Xrotation 
					JOINT lForeArm
					{
						OFFSET 10.129278 0.000000 0.000000
						CHANNELS 3 Yrotation Zrotation Xrotation 
						JOINT lHand
						{
							OFFSET 8.486692 0.000000 0.000000
							CHANNELS 3 Zrotation Yrotation Xrotation 
							End Site
							{
								OFFSET 4.106464 0.000000 0.000000
							}
						}
					}
				}
			}
			JOINT rCollar
			{
				OFFSET -3.558935 6.707223 -0.821293
				CHANNELS 3 Yrotation Zrotation Xrotation 
				JOINT rShldr
				{
					OFFSET -3.148289 0.000000 0.000000
					CHANNELS 3 Zrotation Yrotation Xrotation 
					JOINT rForeArm
					{
						OFFSET -10.266159 0.000000 0.000000
						CHANNELS 3 Yrotation Zrotation Xrotation 
						JOINT rHand
						{
							OFFSET -8.349810 0.000000 0.000000
							CHANNELS 3 Zrotation Yrotation Xrotation 
							End Site
							{
								OFFSET -4.106464 0.000000 0.000000
							}
						}
					}
				}
			}
		}
	}
	JOINT lThigh
	{
		OFFSET 5.338403 -1.642589 1.368821
		CHANNELS 3 Xrotation Zrotation Yrotation 
		JOINT lShin
		{
			OFFSET -2.053232 -20.121670 0.000000
			CHANNELS 3 Xrotation Zrotation Yrotation 
			JOINT lFoot
			{
				OFFSET 0.000000 -19.300380 -1.231939
				CHANNELS 3 Xrotation Yrotation Zrotation 
				End Site
				{
					OFFSET 0.000000 -2.463878 4.653993
				}
			}
		}
	}
	JOINT rThigh
	{
		OFFSET -5.338403 -1.642589 1.368821
		CHANNELS 3 Xrotation Zrotation Yrotation 
		JOINT rShin
		{
			OFFSET 2.053232 -20.121670 0.000000
			CHANNELS 3 Xrotation Zrotation Yrotation 
			JOINT rFoot
			{
				OFFSET 0.000000 -19.300380 -1.231939
				CHANNELS 3 Xrotation Yrotation Zrotation 
				End Site
				{
					OFFSET 0.000000 -2.463878 4.653993
				}
			}
		}
	}
}
MOTION
Frames: 19
Frame Time: 0.071413
0.000000 43.528500 0.000000 0.000000 0.000000 0.000000 0.000000 0.000000 0.000000 0.000000 0.000000 0.000000 0.000000 0.000000 0.000000 0.000000 0.000000 0.000000 0.000000 0.000000 0.000000 0.000000 0.000000 0.000000 0.000000 0.000000 0.000000 0.000000 0.000000 0.000000 0.000000 0.000000 0.000000 0.000000 0.000000 0.000000 0.000000 0.000000 0.000000 0.000000 0.000000 0.000000 0.000000 0.000000 0.000000 0.000000 0.000000 0.000000 0.000000 0.000000 0.000000 0.000000 0.000000 0.000000 0.000000 0.000000 0.000000 0.000000 0.000000 0.000000 
-20.987122 8.874371 -8.107097 89.996140 -0.003251 122.991737 17.009064 -16.363773 -10.339358 31.843142 -16.272909 -28.891117 0.213379 -21.171362 -15.062413 -1.744937 -0.847306 29.281582 -63.054066 -14.036180 -5.444577 -42.161800 -5.026603 -70.177147 -63.334438 -6.376863 4.002017 55.296719 -31.042862 -7.026597 -22.128748 -6.036471 4.588815 9.845316 28.913937 33.631535 59.152130 -42.784473 17.819155 6.067425 2.971799 10.634416 -31.310486 5.851669 53.047234 89.594185 4.762113 -0.568799 4.544341 -7.557087 5.126237 -71.928146 -38.972324 5.553531 45.790974 7.450134 0.733168 10.050149 -1.332799 19.595968 
-20.987122 8.874371 -8.107097 89.996140 -0.003251 122.991737 17.009064 -16.363773 -10.339358 31.843145 -16.272909 -28.891121 0.150155 -20.849800 -15.042162 -1.744937 -0.847306 29.281582 -63.054073 -14.036181 -5.444576 -42.161800 -5.026606 -70.177155 -62.824421 -6.399159 4.058040 55.296719 -31.042862 -7.026596 -22.128748 -6.036471 4.588815 9.845316 28.913937 33.631535 59.152138 -42.784477 17.819157 6.067426 2.971799 10.634416 -31.310486 5.851669 53.047234 89.594200 4.762113 -0.568799 4.544341 -7.557087 5.126237 -71.928154 -38.972328 5.553533 45.790974 7.450135 0.733168 10.050149 -1.332799 19.595968 
-20.987122 8.874371 -8.107097 89.996140 -0.003251 122.991737 17.009064 -16.363773 -10.339358 31.843142 -16.272907 -28.891117 0.087173 -20.528151 -15.022326 -1.744937 -0.847306 29.281582 -63.054066 -14.036180 -5.444577 -42.161793 -5.026603 -70.177139 -62.314106 -6.420970 4.114290 55.296715 -31.042858 -7.026598 -22.128748 -6.036471 4.588815 9.845316 28.913937 33.631535 59.152130 -42.784473 17.819155 6.067425 2.971799 10.634416 -31.310482 5.851668 53.047234 89.594185 4.762113 -0.568798 4.544341 -7.557086 5.126236 -71.928146 -38.972324 5.553531 45.790970 7.450134 0.733167 10.050148 -1.332799 19.595968 
-20.987122 8.874371 -8.107097 89.996140 -0.003251 122.991737 17.009064 -16.363773 -10.339358 31.843145 -16.272911 -28.891117 0.024430 -20.206421 -15.002911 -1.744937 -0.847306 29.281582 -63.054066 -14.036180 -5.444577 -42.161800 -5.026603 -70.177147 -61.803509 -6.442292 4.170762 55.296719 -31.042862 -7.026597 -22.128748 -6.036471 4.588815 9.845316 28.913937 33.631535 59.152130 -42.784473 17.819155 6.067425 2.971799 10.634416 -31.310486 5.851669 53.047234 89.594185 4.762113 -0.568799 4.544341 -7.557087 5.126237 -71.928146 -38.972324 5.553531 45.790974 7.450134 0.733168 10.050149 -1.332799 19.595968 
-20.987122 8.874371 -8.107097 89.996140 -0.003251 122.991737 17.009064 -16.363773 -10.339359 31.843145 -16.272911 -28.891117 -0.038079 -19.884619 -14.983904 -1.744937 -0.847306 29.281582 -63.054066 -14.036180 -5.444577 -42.161804 -5.026605 -70.177155 -61.292664 -6.463121 4.227449 55.296719 -31.042862 -7.026597 -22.128748 -6.036471 4.588815 9.845316 28.913937 33.631535 59.152138 -42.784481 17.819155 6.067425 2.971799 10.634416 -31.310486 5.851668 53.047234 89.594185 4.762113 -0.568799 4.544341 -7.557088 5.126237 -71.928146 -38.972324 5.553531 45.790977 7.450135 0.733168 10.050149 -1.332799 19.595968 
-20.987122 8.874371 -8.107097 89.996140 -0.003249 122.991737 17.009064 -16.363773 -10.339358 31.843142 -16.272909 -28.891117 -0.100360 -19.562746 -14.965303 -1.744937 -0.847306 29.281582 -63.054066 -14.036180 -5.444577 -42.161793 -5.026603 -70.177139 -60.781567 -6.483453 4.284343 55.296715 -31.042858 -7.026598 -22.128746 -6.036471 4.588814 9.845316 28.913937 33.631535 59.152130 -42.784473 17.819155 6.067425 2.971798 10.634415 -31.310482 5.851670 53.047230 89.594185 4.762113 -0.568799 4.544341 -7.557087 5.126237 -71.928146 -38.972324 5.553533 45.790974 7.450134 0.733168 10.050148 -1.332799 19.595964 
-20.987122 8.874371 -8.107097 89.996140 -0.003251 122.991737 17.009064 -16.363773 -10.339358 31.843142 -16.272909 -28.891117 -0.162415 -19.240807 -14.947107 -1.744937 -0.847306 29.281582 -63.054073 -14.036181 -5.444576 -42.161800 -5.026603 -70.177147 -60.270279 -6.503288 4.341439 55.296719 -31.042862 -7.026597 -22.128748 -6.036471 4.588815 9.845316 28.913937 33.631535 59.152138 -42.784481 17.819157 6.067425 2.971799 10.634416 -31.310486 5.851669 53.047234 89.594185 4.762113 -0.568799 4.544341 -7.557087 5.126237 -71.928146 -38.972324 5.553531 45.790974 7.450134 0.733168 10.050149 -1.332799 19.595968 
-20.987122 8.874371 -8.107097 89.996140 -0.003251 122.991737 17.009064 -16.363773 -10.339359 31.843145 -16.272911 -28.891121 -0.224249 -18.918810 -14.929314 -1.744937 -0.847307 29.281586 -63.054066 -14.036180 -5.444577 -42.161800 -5.026605 -70.177147 -59.758793 -6.522622 4.398731 55.296719 -31.042862 -7.026598 -22.128748 -6.036472 4.588815 9.845316 28.913937 33.631535 59.152130 -42.784473 17.819155 6.067425 2.971799 10.634416 -31.310486 5.851670 53.047234 89.594185 4.762113 -0.568799 4.544341 -7.557087 5.126237 -71.928146 -38.972324 5.553531 45.790974 7.450134 0.733168 10.050151 -1.332799 19.595968 
-20.987122 8.874371 -8.107097 89.996140 -0.003254 122.991737 17.009062 -16.363771 -10.339358 31.843142 -16.272907 -28.891117 -0.285866 -18.596767 -14.911923 -1.744937 -0.847306 29.281582 -63.054066 -14.036180 -5.444577 -42.161797 -5.026601 -70.177139 -59.247150 -6.541452 4.456212 55.296719 -31.042862 -7.026597 -22.128748 -6.036471 4.588815 9.845316 28.913937 33.631535 59.152130 -42.784466 17.819153 6.067425 2.971799 10.634416 -31.310486 5.851669 53.047234 89.594185 4.762113 -0.568799 4.544341 -7.557087 5.126237 -71.928146 -38.972324 5.553531 45.790970 7.450134 0.733167 10.050149 -1.332799 19.595968 
-20.987122 8.874371 -8.107097 89.996140 -0.003251 122.991737 17.009064 -16.363773 -10.339358 31.843142 -16.272909 -28.891117 -0.347271 -18.274675 -14.894923 -1.744937 -0.847306 29.281582 -63.054066 -14.036180 -5.444577 -42.161800 -5.026603 -70.177147 -58.735344 -6.559774 4.513873 55.296719 -31.042862 -7.026597 -22.128748 -6.036471 4.588815 9.845316 28.913937 33.631535 59.152130 -42.784473 17.819155 6.067425 2.971799 10.634416 -31.310486 5.851669 53.047234 89.594185 4.762113 -0.568799 4.544341 -7.557087 5.126237 -71.928146 -38.972324 5.553531 45.790974 7.450134 0.733168 10.050149 -1.332799 19.595968 
-20.987122 8.874371 -8.107097 89.996124 -0.003252 122.991737 17.009062 -16.363771 -10.339358 31.843142 -16.272909 -28.891117 -0.408466 -17.952536 -14.878316 -1.744937 -0.847306 29.281582 -63.054066 -14.036180 -5.444577 -42.161800 -5.026603 -70.177147 -58.223423 -6.577588 4.571709 55.296719 -31.042862 -7.026597 -22.128748 -6.036471 4.588815 9.845316 28.913937 33.631535 59.152130 -42.784466 17.819153 6.067425 2.971799 10.634416 -31.310482 5.851670 53.047234 89.594185 4.762113 -0.568799 4.544340 -7.557087 5.126236 -71.928139 -38.972321 5.553533 45.790974 7.450134 0.733168 10.050148 -1.332799 19.595966 
-20.987122 8.874371 -8.107097 89.996140 -0.003249 122.991737 17.009064 -16.363773 -10.339358 31.843142 -16.272909 -28.891117 -0.469457 -17.630367 -14.862101 -1.744937 -0.847306 29.281582 -63.054066 -14.036180 -5.444577 -42.161797 -5.026601 -70.177139 -57.711399 -6.594891 4.629714 55.296719 -31.042862 -7.026597 -22.128746 -6.036471 4.588815 9.845316 28.913937 33.631535 59.152130 -42.784470 17.819153 6.067425 2.971799 10.634415 -31.310486 5.851669 53.047234 89.594185 4.762113 -0.568799 4.544341 -7.557087 5.126237 -71.928146 -38.972324 5.553531 45.790974 7.450134 0.733168 10.050148 -1.332799 19.595966 
-20.987122 8.874371 -8.107097 89.996140 -0.003251 122.991737 17.009064 -16.363773 -10.339358 31.843145 -16.272911 -28.891121 -0.530247 -17.308174 -14.846275 -1.744937 -0.847306 29.281582 -63.054066 -14.036180 -5.444577 -42.161800 -5.026603 -70.177147 -57.199268 -6.611678 4.687879 55.296719 -31.042862 -7.026598 -22.128748 -6.036472 4.588815 9.845316 28.913937 33.631535 59.152130 -42.784473 17.819155 6.067425 2.971799 10.634416 -31.310486 5.851670 53.047234 89.594185 4.762113 -0.568799 4.544341 -7.557087 5.126237 -71.928146 -38.972324 5.553531 45.790974 7.450135 0.733168 10.050149 -1.332799 19.595968 
-20.987122 8.874371 -8.107097 89.996140 -0.003251 122.991737 17.009064 -16.363773 -10.339358 31.843145 -16.272909 -28.891121 -0.590840 -16.985947 -14.830826 -1.744937 -0.847306 29.281586 -63.054073 -14.036181 -5.444576 -42.161800 -5.026602 -70.177147 -56.687088 -6.627949 4.746199 55.296719 -31.042862 -7.026598 -22.128748 -6.036471 4.588815 9.845316 28.913937 33.631535 59.152145 -42.784485 17.819159 6.067426 2.971799 10.634417 -31.310486 5.851668 53.047234 89.594200 4.762113 -0.568799 4.544341 -7.557088 5.126237 -71.928146 -38.972324 5.553531 45.790977 7.450135 0.733168 10.050149 -1.332799 19.595968 
-20.987122 8.874371 -8.107097 89.996140 -0.003251 122.991737 17.009064 -16.363773 -10.339358 31.843142 -16.272907 -28.891117 -0.651240 -16.663706 -14.815763 -1.744937 -0.847306 29.281582 -63.054066 -14.036180 -5.444577 -42.161800 -5.026603 -70.177147 -56.174854 -6.643702 4.804665 55.296719 -31.042862 -7.026597 -22.128748 -6.036471 4.588815 9.845316 28.913937 33.631535 59.152130 -42.784473 17.819155 6.067425 2.971799 10.634416 -31.310486 5.851669 53.047234 89.594185 4.762113 -0.568799 4.544341 -7.557087 5.126237 -71.928146 -38.972324 5.553531 45.790970 7.450134 0.733167 10.050149 -1.332799 19.595968 
-20.987122 8.874371 -8.107097 89.996140 -0.003251 122.991737 17.009064 -16.363773 -10.339358 31.843142 -16.272909 -28.891117 -0.711451 -16.341455 -14.801082 -1.744937 -0.847306 29.281582 -63.054073 -14.036181 -5.444576 -42.161800 -5.026603 -70.177147 -55.662601 -6.658934 4.863272 55.296719 -31.042862 -7.026597 -22.128748 -6.036471 4.588815 9.845316 28.913937 33.631535 59.152130 -42.784470 17.819155 6.067425 2.971799 10.634416 -31.310486 5.851669 53.047234 89.594185 4.762113 -0.568799 4.544341 -7.557087 5.126237 -71.928146 -38.972324 5.553531 45.790974 7.450134 0.733168 10.050149 -1.332799 19.595968 
-20.987122 8.874371 -8.107097 89.996140 -0.003251 122.991737 17.009064 -16.363773 -10.339358 31.843142 -16.272909 -28.891117 -0.771475 -16.019196 -14.786776 -1.744937 -0.847306 29.281578 -63.054066 -14.036180 -5.444577 -42.161797 -5.026604 -70.177139 -55.150360 -6.673646 4.922012 55.296719 -31.042862 -7.026597 -22.128748 -6.036471 4.588815 9.845316 28.913933 33.631531 59.152122 -42.784470 17.819155 6.067425 2.971798 10.634415 -31.310482 5.851670 53.047230 89.594177 4.762113 -0.568799 4.544341 -7.557087 5.126237 -71.928146 -38.972324 5.553531 45.790974 7.450134 0.733168 10.050149 -1.332799 19.595968 
-20.987122 8.874371 -8.107097 89.996140 -0.003251 122.991737 17.009064 -16.363773 -10.339358 31.843142 -16.272909 -28.891117 -0.831318 -15.696935 -14.772842 -1.744937 -0.847306 29.281582 -63.054066 -14.036180 -5.444577 -42.161800 -5.026603 -70.177147 -54.638123 -6.687834 4.980878 55.296719 -31.042862 -7.026598 -22.128748 -6.036471 4.588815 9.845316 28.913937 33.631535 59.152130 -42.784473 17.819155 6.067425 2.971799 10.634416 -31.310486 5.851669 53.047234 89.594185 4.762113 -0.568799 4.544341 -7.557087 5.126237 -71.928146 -38.972324 5.553531 45.790974 7.450134 0.733168 10.050148 -1.332799 19.595966 
